# xmcd
#
# Track frame offsets: 
#        150
#        12765
#        35274
#        49993
#        63840
#        90055
#        101645
#        127731
#        144133
#        168442
#        201211
#        233325
#        253774
#
# Disc length: 3634 seconds
#
# Revision: 0
# Processed by: cddbd v1.5.2PL0 Copyright (c) Steve Scherf et al.
# Submitted via: ExactAudioCopy v0.95b4
#
DISCID=940e300d
DTITLE=Gary Moore - Close As You Get
DYEAR=2007
DGENRE=Blues
TTITLE0=If The Devil Made Whiskey
TTITLE1=Trouble At Home
TTITLE2=Thirty Days
TTITLE3=Hard Times
TTITLE4=Have You Heard
TTITLE5=Eyesight To The Blind
TTITLE6=Evenin'
TTITLE7=Nowhere Fast
TTITLE8=Checkin' Up On My Baby
TTITLE9=I Had A Dream
TTITLE10=Sundown
TTITLE11=Story Of The Blues
TTITLE12=Stil Got The Blues
EXTD=
EXTT0=
EXTT1=
EXTT2=
EXTT3=
EXTT4=
EXTT5=
EXTT6=
EXTT7=
EXTT8=
EXTT9=
EXTT10=
EXTT11=
EXTT12=
PLAYORDER=
